<svg width="1529" height="400" viewBox="0 0 1529 400" fill="none" xmlns="http://www.w3.org/2000/svg">
<path d="M632.928 349.605C610.911 349.605 588.828 345.536 566.679 337.396C544.529 329.257 525.782 318.516 510.438 305.173L546.464 251.533C558.606 262.074 572.416 270.614 587.894 277.152C603.506 283.557 618.384 286.759 632.527 286.759C644.269 286.759 654.143 284.624 662.149 280.354C670.288 276.084 674.358 270.414 674.358 263.342C674.358 260.807 673.824 258.538 672.757 256.537C671.689 254.535 669.888 252.667 667.353 250.933C664.818 249.198 662.282 247.73 659.747 246.529C657.212 245.195 653.543 243.794 648.739 242.326C644.069 240.859 639.999 239.724 636.53 238.924C633.194 237.99 628.324 236.722 621.919 235.121C555.204 218.842 521.846 188.086 521.846 142.853C521.846 116.834 532.053 96.0188 552.468 80.4073C572.883 64.6624 599.837 56.79 633.328 56.79C654.277 56.79 673.624 59.9923 691.37 66.397C709.25 72.8017 723.794 81.2079 735.003 91.6156L702.579 145.455C694.039 137.716 683.431 131.512 670.755 126.841C658.079 122.038 645.337 119.636 632.527 119.636C621.319 119.636 612.179 121.571 605.107 125.44C598.035 129.31 594.499 134.314 594.499 140.451C594.499 146.99 598.636 152.394 606.908 156.663C615.315 160.933 626.856 164.803 641.534 168.272C646.471 169.339 651.008 170.474 655.144 171.674C659.414 172.742 665.285 174.61 672.757 177.279C680.362 179.814 687.167 182.616 693.172 185.685C699.31 188.754 705.848 192.757 712.786 197.694C719.725 202.631 725.462 207.968 729.999 213.705C734.669 219.443 738.539 226.381 741.607 234.521C744.81 242.66 746.411 251.333 746.411 260.54C746.411 277.886 741.407 293.431 731.4 307.174C721.393 320.784 707.783 331.258 690.57 338.597C673.357 345.936 654.143 349.605 632.928 349.605Z" fill="#101728"/>
<path d="M943.956 325.387C925.676 341.533 901.458 349.605 871.303 349.605C841.147 349.605 816.929 341.533 798.649 325.387C780.369 309.109 771.229 287.626 771.229 260.94V135.648H837.678V251.533C837.678 261.674 840.747 269.813 846.885 275.951C853.156 282.089 861.295 285.158 871.303 285.158C881.31 285.158 889.383 282.089 895.521 275.951C901.792 269.813 904.927 261.674 904.927 251.533V135.648H971.376V260.94C971.376 287.626 962.236 309.109 943.956 325.387Z" fill="#101728"/>
<path d="M1086.46 349.605C1052.97 349.605 1022.68 339.198 995.594 318.382L1025.02 276.551C1044.36 291.096 1064.18 298.368 1084.46 298.368C1093.27 298.368 1100.34 297.167 1105.68 294.765C1111.01 292.23 1113.68 288.76 1113.68 284.357C1113.68 279.821 1110.88 276.351 1105.27 273.95C1099.8 271.548 1091.26 269.146 1079.66 266.744C1073.52 265.41 1068.58 264.343 1064.85 263.542C1061.24 262.608 1056.37 261.14 1050.23 259.139C1044.1 257.137 1039.09 255.136 1035.22 253.134C1031.49 250.999 1027.22 248.197 1022.41 244.728C1017.74 241.259 1014.07 237.523 1011.41 233.52C1008.87 229.384 1006.67 224.447 1004.8 218.709C1002.93 212.838 1002 206.433 1002 199.495C1002 184.551 1006.07 171.808 1014.21 161.267C1022.35 150.726 1033.02 142.987 1046.23 138.05C1059.44 133.113 1074.39 130.644 1091.06 130.644C1121.89 130.644 1150.17 139.651 1175.93 157.664L1146.3 199.495C1127.49 187.753 1109.88 181.882 1093.47 181.882C1085.99 181.882 1079.86 182.883 1075.05 184.884C1070.38 186.886 1068.05 189.955 1068.05 194.091C1068.05 198.494 1070.72 201.897 1076.05 204.298C1081.39 206.567 1089.93 208.902 1101.67 211.304C1107.41 212.371 1112.28 213.372 1116.28 214.306C1120.29 215.24 1125.22 216.641 1131.09 218.509C1136.96 220.377 1141.9 222.378 1145.9 224.513C1150.04 226.648 1154.38 229.45 1158.91 232.919C1163.45 236.255 1167.12 239.991 1169.92 244.128C1172.72 248.264 1174.99 253.268 1176.73 259.139C1178.6 264.876 1179.53 271.214 1179.53 278.153C1179.53 300.703 1170.79 318.249 1153.31 330.791C1135.96 343.334 1113.68 349.605 1086.46 349.605Z" fill="#101728"/>
<path d="M1335.44 130.644C1359.06 130.644 1378.08 137.783 1392.49 152.06C1407.03 166.337 1414.3 185.284 1414.3 208.902V344.602H1347.85V231.118C1347.85 220.177 1344.72 211.437 1338.45 204.899C1332.17 198.227 1323.84 194.891 1313.43 194.891C1301.95 194.891 1292.68 198.294 1285.61 205.099C1278.67 211.904 1275.2 220.844 1275.2 231.919V344.602H1208.95V49.3845H1275.2V155.262C1291.21 138.85 1311.29 130.644 1335.44 130.644Z" fill="#101728"/>
<path d="M1487.76 113.031C1476.28 113.031 1466.67 109.229 1458.93 101.623C1451.2 93.8839 1447.33 84.2768 1447.33 72.8017C1447.33 61.0598 1451.2 51.386 1458.93 43.7804C1466.67 36.0414 1476.28 32.1719 1487.76 32.1719C1499.5 32.1719 1509.17 36.0414 1516.78 43.7804C1524.52 51.386 1528.39 61.0598 1528.39 72.8017C1528.39 84.2768 1524.52 93.8839 1516.78 101.623C1509.17 109.229 1499.5 113.031 1487.76 113.031ZM1454.73 344.602V135.648H1520.98V344.602H1454.73Z" fill="#101728"/>
<path fill-rule="evenodd" clip-rule="evenodd" d="M426.223 259.279L341.309 377.229C328.944 394.428 304.83 402.004 274.12 399.548C231.454 395.861 174.775 373.336 120.571 334.639C102.895 322.172 86.1969 308.391 70.6189 293.416C41.8966 265.701 20.7858 236.867 9.48064 211.158C-2.88421 182.901 -3.29315 157.921 9.0717 140.721L94.1878 22.7711C106.557 5.57158 130.464 -2.00373 161.381 0.451474C204.047 3.93332 260.52 26.6636 314.926 65.1605C369.134 103.863 408.915 149.935 425.814 188.842C427.274 192.18 428.566 195.47 429.692 198.711C438.095 222.892 437.128 244.111 426.223 259.279Z" fill="url(#paint0_linear_982_2535)"/>
<path fill-rule="evenodd" clip-rule="evenodd" d="M412.623 194.574C396.34 157.51 358.208 113.893 306.273 77.0341C254.54 40.1755 200.749 18.2665 160.146 14.99C135.412 12.9411 115.831 17.4496 105.942 31.1673L105.524 31.9842C96.2506 45.7062 98.3129 65.16 108 87.2743C124.283 124.544 162.41 168.156 214.148 205.015C265.876 241.873 319.671 263.787 360.27 267.063C384.591 268.902 403.762 264.604 413.858 251.703L414.478 250.681C424.372 237.164 422.31 217.098 412.623 194.574ZM336.569 195.395C332.036 201.738 322.762 203.586 311.426 202.559C291.019 200.921 264.227 189.864 238.257 171.437C212.288 153.005 193.12 131.297 185.082 112.665C180.549 102.224 179.313 93.0103 183.847 86.6583C188.385 80.3106 197.658 78.467 209.196 79.2883C229.393 81.1319 256.396 91.9837 282.159 110.415C308.128 128.842 327.296 150.751 335.334 169.388C340.074 179.829 341.309 189.043 336.569 195.395V195.395Z" fill="white"/>
<defs>
<linearGradient id="paint0_linear_982_2535" x1="147.778" y1="-4.83492" x2="285.907" y2="405.42" gradientUnits="userSpaceOnUse">
<stop stop-color="#27B0E6"/>
<stop offset="0.044" stop-color="#49A1DB"/>
<stop offset="0.11841" stop-color="#7D8ACA"/>
<stop offset="0.21562" stop-color="#A279BD"/>
<stop offset="0.29605" stop-color="#BA6FB6"/>
<stop offset="0.37529" stop-color="#C26BB3"/>
<stop offset="0.46788" stop-color="#D563AD"/>
<stop offset="0.57967" stop-color="#E65BA7"/>
<stop offset="0.70861" stop-color="#F156A3"/>
<stop offset="0.82293" stop-color="#F853A1"/>
<stop offset="1" stop-color="#FA52A0"/>
</linearGradient>
</defs>
</svg>
